<svg width="107" height="18" xmlns="http://www.w3.org/2000/svg"><path fill-rule="evenodd" clip-rule="evenodd" d="M0 .53v8.087c0 3.36 1.339 6.01 3.415 7.54 1.148.848 2.95 1.285 4.727 1.312 1.72 0 3.524-.437 4.644-1.257 2.022-1.475 3.388-4.07 3.388-7.35V.53h-3.442l-.082 8.36c.027 1.202-.301 2.295-.957 3.224-.628.956-2.103 1.448-3.47 1.503-1.31-.028-2.759-.465-3.47-1.339-.71-.847-1.065-1.994-1.092-3.388L3.606.53H0Zm106.745 14.455a2.484 2.484 0 1 1-4.967 0 2.484 2.484 0 0 1 4.967 0ZM22.189 17.47h-3.36V5.393h3.551l-.109 3.142h.11c.3-2.049 2.404-3.388 5.108-3.388 2.678 0 4.945 2.077 5.027 4.973l.028 7.349H28.91v-6.175c-.055-1.912-1.147-3.169-3.005-3.196-1.257.082-2.159.52-2.732 1.339-.574.792-.874 1.612-.874 2.459l-.11 5.573ZM38.06 5.393h-3.416l-.027 12.076h3.442V5.393Zm9.25 12.076c-4.043-.027-6.666-2.186-6.72-6.202.054-4.043 2.704-6.174 6.83-6.202 2.65.055 4.699 1.312 5.683 2.978l-2.24 1.476c-1.831-3.06-7.541-2.323-7.541 1.748.082 3.634 5.437 5.137 7.595 1.749l2.213 1.475c-1.011 1.721-3.087 2.95-5.82 2.978Zm13.906 0c3.415-.082 5.956-2.732 6.038-6.175-.082-3.47-2.623-6.12-6.038-6.201-3.443.082-5.956 2.732-6.038 6.201.082 3.443 2.596 6.093 6.038 6.175Zm.055-9.453c1.857.055 3.223 1.475 3.25 3.333-.026 1.858-1.393 3.306-3.25 3.333-1.83-.027-3.197-1.475-3.252-3.333.055-1.858 1.421-3.278 3.252-3.333ZM79.769.694h3.47v16.775h-3.36l.026-3.634h-.082c-2.294 5.956-10.217 3.907-10.217-2.431 0-6.339 8.223-8.415 10.218-2.432h.081L79.77.694Zm-3.525 13.797c2.05-.055 3.552-1.147 3.552-3.087 0-1.94-1.53-3.06-3.552-3.115-1.256.055-2.185.383-2.786 1.011-.601.628-.902 1.339-.902 2.104 0 1.994 1.53 3.032 3.689 3.087Zm19.326-.874c-1.339 1.858-6.338 1.147-6.502-1.284l9.535-.028c.164-4.344-2.186-7.158-6.393-7.158-3.853 0-6.339 3.033-6.366 6.257-.027 4.07 3.415 6.12 6.666 6.065 2.486-.027 5.027-.82 6.093-3.115l-3.033-.737Zm.027-3.552H89.04c.792-3.005 5.765-2.869 6.557 0ZM36.36 4.333a1.642 1.642 0 1 0 0-3.284 1.642 1.642 0 0 0 0 3.284Z"/></svg>